<svg viewBox="0 0 70 70" xmlns="http://www.w3.org/2000/svg"><g fill="#4d9a00"><path d="m27.12 58.75a1.13 1.13 0 0 1 -1.11-1c0-.13-.24-1.3-1.13-1.3a1.13 1.13 0 1 1 0-2.25c2.26 0 3.19 2.1 3.36 3.2a1.14 1.14 0 0 1 -.94 1.29z"/><path d="m31.63 45.25a1.12 1.12 0 0 1 -1.13-1.13 12.44 12.44 0 0 1 1.36-4.34 11.58 11.58 0 0 0 .89-2.4c0-.21 0-.47 0-.78.1-1.6.28-4.58-1.84-6.21a12.55 12.55 0 0 1 -3.71-4.91c-1.09-2.35-2.92-2.73-6.85-2.73a1.13 1.13 0 1 1 0-2.25c4 0 7.15.3 8.89 4a10.3 10.3 0 0 0 3 4.09c3.14 2.41 2.91 6.27 2.76 8.15v.64a9.52 9.52 0 0 1 -1.08 3.3 12.23 12.23 0 0 0 -1.17 3.44 1.12 1.12 0 0 1 -1.12 1.13z"/><path d="m20.38 22.75c-13.47 0-15.81-13-16.68-18l-.18-1a1.12 1.12 0 0 1 2.14-.65c3.59 8.7 17.86 10.65 20.34 10.65a1.13 1.13 0 1 1 0 2.25c-2.34 0-13.08-1.39-19.17-7.28 1.43 5.35 4.64 11.78 13.55 11.78a1.13 1.13 0 0 1 0 2.25z"/><path d="m15.88 34c-6.76 0-14-6.77-14.28-7.06a1.14 1.14 0 0 1 -.18-1.42c4-6.25 11.23-5.62 16-5.2 1.09.09 2.08.18 2.93.18a1.13 1.13 0 0 1 0 2.25c-.9 0-2-.09-3.12-.19-4.48-.39-10.04-.88-13.36 3.44 1.91 1.63 7.27 5.8 12 5.8a1.13 1.13 0 0 1 0 2.25z"/><path d="m21.5 53.12a.82.82 0 0 1 -.22 0 1.11 1.11 0 0 1 -.88-1.32l1.12-5.63c0-2-1.63-3.61-3.34-5.27s-3.43-3.33-3.43-5.76a9.62 9.62 0 0 1 2-5.56 6.26 6.26 0 0 0 1.39-3.44c0-7.73 8.8-14.62 15.75-14.62h2.83c6.83 0 15.17 6.75 15.17 14.62a6.24 6.24 0 0 0 1.38 3.44 9.62 9.62 0 0 1 2 5.56c0 2.49-1.86 4-3.51 5.31s-3.26 2.55-3.26 4.8l1.11 6.57a1.12 1.12 0 0 1 -2.22.36l-1.12-6.75c0-3.47 2.25-5.29 4.06-6.75s2.67-2.21 2.67-3.56a7.48 7.48 0 0 0 -1.63-4.33 8.22 8.22 0 0 1 -1.74-4.67c0-6.37-7.28-12.37-12.92-12.37h-2.83c-5.78 0-13.5 6.12-13.5 12.37a8.23 8.23 0 0 1 -1.75 4.67 7.48 7.48 0 0 0 -1.63 4.33c0 1.48 1.27 2.71 2.74 4.14 1.88 1.83 4 3.89 4 7.12l-1.14 5.84a1.1 1.1 0 0 1 -1.1.9z"/><path d="m41.75 64.38a5.5 5.5 0 0 1 -4-1.95 3.36 3.36 0 0 0 -5.5 0 5.5 5.5 0 0 1 -4 1.95c-7.44 0-9-3.68-9-6.76 0-7 3.37-7.88 5.83-8.54a4.8 4.8 0 0 0 2-.86 9.61 9.61 0 0 0 1.26-1.65c1.14-1.67 2.39-3.57 6.66-3.57s5.52 1.9 6.63 3.57a9.61 9.61 0 0 0 1.26 1.65 4.8 4.8 0 0 0 2 .86c2.46.66 5.83 1.58 5.83 8.54.03 3.08-1.53 6.76-8.97 6.76zm-6.75-5.63a5.83 5.83 0 0 1 4.31 2c.88.85 1.42 1.32 2.44 1.32 6 0 6.75-2.4 6.75-4.5 0-5.24-1.93-5.76-4.17-6.37a6.32 6.32 0 0 1 -3-1.44 11.41 11.41 0 0 1 -1.55-2c-1-1.54-1.69-2.56-4.75-2.56s-3.73 1-4.75 2.56a11.41 11.41 0 0 1 -1.55 2 6.32 6.32 0 0 1 -3 1.44c-2.24.61-4.17 1.13-4.17 6.37 0 2.1.77 4.5 6.75 4.5 1 0 1.56-.47 2.44-1.32a5.83 5.83 0 0 1 4.25-2z"/><path d="m35 70c-5.37 0-7.62-2.42-9.79-4.77-.37-.39-.74-.79-1.13-1.18a1.13 1.13 0 0 1 1.59-1.6c.41.42.8.84 1.19 1.25 2 2.17 3.75 4 8.14 4s6.13-1.88 8.14-4c.39-.41.78-.83 1.19-1.25a1.13 1.13 0 0 1 1.59 1.6c-.39.39-.76.79-1.13 1.18-2.17 2.35-4.42 4.77-9.79 4.77z"/><path d="m42.88 58.75h-.18a1.14 1.14 0 0 1 -.94-1.29 3.59 3.59 0 0 1 3.37-3.2 1.13 1.13 0 0 1 0 2.25c-.93 0-1.14 1.28-1.14 1.3a1.13 1.13 0 0 1 -1.11.94z"/><path d="m49.63 22.75a1.13 1.13 0 1 1 0-2.25c8.9 0 12.11-6.43 13.54-11.78-6.09 5.89-16.83 7.28-19.17 7.28a1.13 1.13 0 0 1 0-2.25c2.48 0 16.75-1.95 20.34-10.56a1.12 1.12 0 0 1 2.14.65l-.18 1c-.87 4.86-3.21 17.91-16.67 17.91z"/><path d="m54.13 34a1.13 1.13 0 1 1 0-2.25c4.74 0 10.09-4.17 12-5.8-3.32-4.27-8.88-3.78-13.39-3.39-1.16.1-2.22.19-3.11.19a1.13 1.13 0 1 1 0-2.25c.84 0 1.83-.09 2.92-.18 4.8-.42 12.06-1.05 16 5.2a1.14 1.14 0 0 1 -.18 1.42c-.27.29-7.49 7.06-14.24 7.06z"/><path d="m24.88 38.5a3.38 3.38 0 1 1 3.37-3.38 3.38 3.38 0 0 1 -3.37 3.38zm0-4.5a1.13 1.13 0 1 0 1.12 1.12 1.13 1.13 0 0 0 -1.12-1.12z"/><path d="m45.13 38.5a3.38 3.38 0 1 1 3.37-3.38 3.38 3.38 0 0 1 -3.37 3.38zm0-4.5a1.13 1.13 0 1 0 1.12 1.12 1.13 1.13 0 0 0 -1.12-1.12z"/></g></svg>