<svg viewBox="0 0 70 70" xmlns="http://www.w3.org/2000/svg"><g fill="#4d9a00"><path d="m5.75 67.75a4.5 4.5 0 1 1 4.5-4.5 4.51 4.51 0 0 1 -4.5 4.5zm0-6.75a2.25 2.25 0 1 0 2.25 2.25 2.25 2.25 0 0 0 -2.25-2.25z"/><path d="m17 70a4.5 4.5 0 1 1 4.5-4.5 4.51 4.51 0 0 1 -4.5 4.5zm0-6.75a2.25 2.25 0 1 0 2.25 2.25 2.25 2.25 0 0 0 -2.25-2.25z"/><path d="m53 67.75a4.5 4.5 0 1 1 4.5-4.5 4.51 4.51 0 0 1 -4.5 4.5zm0-6.75a2.25 2.25 0 1 0 2.25 2.25 2.25 2.25 0 0 0 -2.25-2.25z"/><path d="m64.25 70a4.5 4.5 0 1 1 4.5-4.5 4.51 4.51 0 0 1 -4.5 4.5zm0-6.75a2.25 2.25 0 1 0 2.25 2.25 2.25 2.25 0 0 0 -2.25-2.25z"/><path d="m35 70a13.52 13.52 0 0 1 -13.5-13.5 13.14 13.14 0 0 1 .19-2.25h-19.31a1.13 1.13 0 1 1 0-2.25h20.72a1.1 1.1 0 0 1 .9.45 1.14 1.14 0 0 1 .19 1 11.21 11.21 0 0 0 10.81 14.3 1.13 1.13 0 0 1 0 2.25z"/><path d="m35 70a1.13 1.13 0 0 1 0-2.25 11.21 11.21 0 0 0 10.81-14.32 1.14 1.14 0 0 1 .19-1 1.1 1.1 0 0 1 .9-.45h18.48a1.13 1.13 0 0 1 0 2.25h-17.07a13.14 13.14 0 0 1 .19 2.25 13.52 13.52 0 0 1 -13.5 13.52z"/><path d="m35 65.5a9 9 0 0 1 -9-9 5.42 5.42 0 0 1 .06-.81.72.72 0 0 1 -.06-.29c-.69-32.67 15.85-52.31 16-52.51a1.13 1.13 0 0 1 1.84 1.28c-.13.24-13 24-2.22 46.21v.09a8.88 8.88 0 0 1 2.33 6 9 9 0 0 1 -8.95 9.03zm-6.76-10.6a1 1 0 0 1 .12.6 6.23 6.23 0 0 0 -.11 1 6.75 6.75 0 1 0 11.49-4.8 1.12 1.12 0 0 1 -.33-.75c-6.41-13.57-4.52-27.59-1.81-36.95a85.8 85.8 0 0 0 -9.36 40.9z"/></g></svg>