<svg viewBox="0 0 425.43 188.53" xmlns="http://www.w3.org/2000/svg"><path d="m231.67 79.6a19.94 19.94 0 0 1 -1.7 2.56 10 10 0 1 1 -15.43 8.39s0 0 0-.06c-.53 0-1.05.06-1.59.06s-1 0-1.49-.06v.06a13.08 13.08 0 1 0 20.2-11z" fill="#ccc"/><path d="m191 74.81a4.65 4.65 0 0 1 -3.51-1.61c-.53.44-1.07.86-1.64 1.25a6.73 6.73 0 0 0 5.15 2.41 6.9 6.9 0 0 0 1.89-.27c-.24-.64-.45-1.29-.63-2a4.73 4.73 0 0 1 -1.26.22z" fill="#e6e6e6"/><path d="m156.4 58a18.21 18.21 0 1 1 18.21 18.2 18.23 18.23 0 0 1 -18.21-18.2zm3.69 0a14.52 14.52 0 1 0 14.52-14.52 14.53 14.53 0 0 0 -14.52 14.52z" fill="#b3b3b3"/><path d="m185 35.19a4.61 4.61 0 0 1 -2.71.87 4.67 4.67 0 0 1 -.77-9.27c-.13-.66-.23-1.34-.31-2a6.72 6.72 0 1 0 5 12.08c-.45-.56-.85-1.11-1.21-1.68z" fill="#e1e1e1"/><path d="m183.07 22a22 22 0 1 1 22 22 22 22 0 0 1 -22-22zm4.1 0a17.9 17.9 0 1 0 17.89-17.9 17.91 17.91 0 0 0 -17.89 17.9z" fill="#9a9a9a"/><path d="m230.7 35.55a13.81 13.81 0 0 0 -13.7 12.45 21.92 21.92 0 0 1 3 .81 10.71 10.71 0 1 1 12.36 11.12 19.94 19.94 0 0 1 1.13 2.93 13.79 13.79 0 0 0 -2.81-27.29z" fill="#c7c7c7"/><path d="m170.48 92.36a14.65 14.65 0 1 1 14.64 14.64 14.66 14.66 0 0 1 -14.64-14.64zm3.08 0a11.57 11.57 0 1 0 11.56-11.57 11.58 11.58 0 0 0 -11.56 11.57z" fill="#c2c2c2"/><path d="m234.75 67.06a4.49 4.49 0 1 1 4.48 4.49 4.49 4.49 0 0 1 -4.48-4.49zm1.53 0a3 3 0 1 0 2.95-3 3 3 0 0 0 -2.95 3z" fill="#e6e6e6"/><path d="m197 54.7a21.55 21.55 0 0 1 1.58-1.59 6.82 6.82 0 0 1 -2.27-8.72c-.69-.27-1.37-.57-2-.9a9 9 0 0 0 2.69 11.21z" fill="#ccc"/><path d="m209.22 47.93a20.45 20.45 0 0 1 2.24-.27c0-.07 0-.13 0-.2a9 9 0 0 0 -.29-2.22c-.71.19-1.44.34-2.17.47a6.72 6.72 0 0 1 .23 1.75c.01.16 0 .31-.01.47z" fill="#ccc"/><path d="m193.23 69.07a19.74 19.74 0 1 1 19.77 19.74 19.75 19.75 0 0 1 -19.77-19.74zm3.69 0a16 16 0 1 0 16-16 16.07 16.07 0 0 0 -16 16z" fill="#aeaeae"/><path d="m75.57 174.74a.82.82 0 0 1 .8-.82h5.31a5.26 5.26 0 0 1 3.75 1.27 3.19 3.19 0 0 1 .93 2.3 3.46 3.46 0 0 1 -2.28 3.32c1.7.52 3.08 1.5 3.08 3.47 0 2.46-2.08 3.92-5.21 3.92h-5.58a.82.82 0 0 1 -.8-.82zm5.8 7a.72.72 0 1 1 0-1.44c2 0 3.31-.88 3.31-2.56 0-1.41-1.13-2.33-3.18-2.33h-4.33v11.44h4.83c2.17 0 3.53-1 3.53-2.56s-1.32-2.46-3.82-2.46zm14.16.88-5.33-7.47a1.07 1.07 0 0 1 -.19-.55.84.84 0 0 1 .85-.8.93.93 0 0 1 .77.49l4.74 6.83 4.78-6.83a.91.91 0 0 1 .76-.49.8.8 0 0 1 .8.8 1.25 1.25 0 0 1 -.22.59l-5.32 7.39v5a.82.82 0 0 1 -1.64 0zm18.09-1.5a7.23 7.23 0 0 1 7.26-7.43 7.43 7.43 0 0 1 5.13 1.87.9.9 0 0 1 .33.66.84.84 0 0 1 -.83.8 1 1 0 0 1 -.53-.19 5.9 5.9 0 0 0 -4.12-1.64 5.63 5.63 0 0 0 -5.56 5.89 5.67 5.67 0 0 0 5.56 5.93 5.87 5.87 0 0 0 4.26-1.75.78.78 0 0 1 .52-.22.81.81 0 0 1 .78.78.78.78 0 0 1 -.27.57 7.37 7.37 0 0 1 -5.33 2.12 7.16 7.16 0 0 1 -7.2-7.37zm27 3.34 1.5 3.31a.87.87 0 0 0 .8.59.78.78 0 0 0 .78-.78 1.16 1.16 0 0 0 -.1-.41l-5.83-12.72a1 1 0 0 0 -1-.71h-.08a1 1 0 0 0 -1 .71l-5.83 12.74a1 1 0 0 0 -.1.43.74.74 0 0 0 .74.74.82.82 0 0 0 .78-.55l1.49-3.35.64-1.47 3.3-7.35 3.29 7.36zm23.41-9.74a.82.82 0 0 1 .8-.82h5.31a5.29 5.29 0 0 1 3.76 1.27 3.23 3.23 0 0 1 .92 2.3 3.46 3.46 0 0 1 -2.28 3.32c1.7.52 3.08 1.5 3.08 3.47 0 2.46-2.07 3.92-5.21 3.92h-5.58a.82.82 0 0 1 -.8-.82zm15.35 6.4a7.33 7.33 0 1 1 14.65 0 7.28 7.28 0 0 1 -7.35 7.43 7.21 7.21 0 0 1 -7.26-7.41zm13 0a5.71 5.71 0 0 0 -5.66-5.93 5.64 5.64 0 0 0 -5.62 5.89 5.71 5.71 0 0 0 5.66 5.93 5.64 5.64 0 0 0 5.62-5.87zm6.41-6.48a.82.82 0 0 1 .8-.8h.22a1 1 0 0 1 .83.47l8.71 11.12v-10.81a.8.8 0 0 1 .8-.8.79.79 0 0 1 .78.8v13a.72.72 0 0 1 -.73.76h-.09a1.1 1.1 0 0 1 -.84-.49l-8.9-11.39v11.12a.79.79 0 1 1 -1.58 0zm24.81 0a.81.81 0 1 1 1.62 0v5.66h8.29v-5.66a.81.81 0 1 1 1.62 0v12.92a.81.81 0 1 1 -1.62 0v-5.74h-8.29v5.74a.81.81 0 1 1 -1.62 0zm54.13 13.13-5.54-12.77a.8.8 0 0 1 -.08-.37.83.83 0 0 1 .82-.8.9.9 0 0 1 .84.61l5 11.9 5-11.94a1 1 0 0 1 .8-.57.8.8 0 0 1 .8.78.92.92 0 0 1 -.06.33l-5.56 12.84a1 1 0 0 1 -.94.67h-.08a1 1 0 0 1 -1-.68zm26.08-1.21a.73.73 0 0 1 -.31-.62.79.79 0 0 1 .78-.8.67.67 0 0 1 .49.19 6.59 6.59 0 0 0 4.54 1.7c1.93 0 3.2-1 3.2-2.44 0-1.34-.72-2.1-3.74-2.73-3.3-.72-4.82-1.79-4.82-4.15 0-2.25 2-3.92 4.72-3.92a7.32 7.32 0 0 1 4.57 1.42.82.82 0 0 1 .35.66.78.78 0 0 1 -.78.78.73.73 0 0 1 -.47-.15 6 6 0 0 0 -3.71-1.25c-1.87 0-3.06 1-3.06 2.32 0 1.35.74 2.11 3.9 2.79s4.68 1.87 4.68 4.06c0 2.46-2 4.06-4.9 4.06a8.39 8.39 0 0 1 -5.44-1.92zm18.56-11.14h-4.17a.75.75 0 0 1 -.75-.74.76.76 0 0 1 .75-.76h10a.76.76 0 0 1 .75.76.75.75 0 0 1 -.75.74h-4.2v12.14a.82.82 0 0 1 -1.64 0zm-72.85 7.58-3.31-7.35-3.3 7.35-.64 1.48-1.5 3.34a.81.81 0 0 1 -.78.56.74.74 0 0 1 -.74-.74.86.86 0 0 1 .11-.43l5.83-12.75a1.05 1.05 0 0 1 1-.72h.09a1 1 0 0 1 1 .72l5.83 12.73a1.07 1.07 0 0 1 .1.41.77.77 0 0 1 -.78.78.89.89 0 0 1 -.8-.6l-1.49-3.3zm39.92 4.49v-12.72a.82.82 0 0 1 .8-.83h8.93a.74.74 0 0 1 0 1.48h-8.11v4.91h4.86a.75.75 0 0 1 .74.74.74.74 0 0 1 -.74.74h-4.86v5h8.21a.74.74 0 0 1 0 1.48h-9a.82.82 0 0 1 -.83-.79zm-20.7-9.27a4 4 0 0 0 -1.11-2.83 5.7 5.7 0 0 0 -4.09-1.44h-5.38a.82.82 0 0 0 -.8.83v12.83a.81.81 0 1 0 1.62 0v-12.2h4.44c2.32 0 3.67 1.07 3.67 2.84 0 1.84-1.54 3-3.69 3a.68.68 0 0 0 -.55 1.09l4.31 5.62a1 1 0 0 0 .76.43.85.85 0 0 0 .82-.8.92.92 0 0 0 -.27-.6l-3.57-4.6c2.24-.39 3.84-1.8 3.84-4.16zm-21.4 5.19a1.1 1.1 0 0 0 -1.1-1.1 1.1 1.1 0 0 0 0 2.19 1.09 1.09 0 0 0 1.1-1.08zm-109.49 0a1.1 1.1 0 0 0 -1.1-1.1 1.1 1.1 0 0 0 0 2.19 1.09 1.09 0 0 0 1.1-1.08zm21.4-5.19a3.94 3.94 0 0 0 -1.11-2.83 5.61 5.61 0 0 0 -4.08-1.44h-5.37a.82.82 0 0 0 -.8.82v12.82a.81.81 0 1 0 1.62 0v-12.17h4.43c2.32 0 3.67 1.06 3.67 2.83 0 1.85-1.54 3-3.69 3a.68.68 0 0 0 -.54 1.11l4.29 5.6a.94.94 0 0 0 .76.43.79.79 0 0 0 .57-1.39l-3.56-4.6c2.21-.4 3.81-1.81 3.81-4.17zm10.62 3.53a.72.72 0 1 1 0-1.44c1.94 0 3.3-.88 3.3-2.56 0-1.41-1.13-2.33-3.18-2.33h-4.37v11.44h4.82c2.17 0 3.53-1 3.53-2.56s-1.31-2.46-3.82-2.46z" fill="#b3b3b3"/><path d="m44.77 112.3c0-2.37 2-3.88 4.53-3.88s4.53 1.51 4.53 3.88v.39c0 2.36-2 3.94-4.53 3.94s-4.53-1.58-4.53-3.94zm.59 12.92a3.92 3.92 0 0 1 3.94-4 4 4 0 0 1 4 4v27.44a4 4 0 0 1 -7.94 0zm14.18 13.92v-.14a18.12 18.12 0 0 1 18.51-18.12c10.63 0 18.44 8.07 18.44 18v.12c0 9.84-7.88 18-18.57 18s-18.38-8-18.38-17.86zm29 0v-.14c0-6.11-4.4-11.16-10.63-11.16s-10.44 5-10.44 11v.16c0 6 4.4 11.09 10.57 11.09 6.44.01 10.51-4.98 10.51-10.95zm15.06 7.54v-18.24h-1.3a3.42 3.42 0 1 1 0-6.83h1.31v-5.9a4 4 0 0 1 7.94 0v5.9h6.23a3.42 3.42 0 1 1 0 6.83h-6.23v17c0 3.08 1.58 4.33 4.27 4.33a18.43 18.43 0 0 0 2-.2 3.35 3.35 0 0 1 3.35 3.28 3.41 3.41 0 0 1 -2.1 3.09 15.8 15.8 0 0 1 -5.45.92c-5.88 0-10.01-2.56-10.01-10.18zm22.64-21.46a3.91 3.91 0 0 1 3.93-4 4 4 0 0 1 4 4v3.55c1.83-4.33 5.25-7.61 8.72-7.61a3.68 3.68 0 0 1 3.94 3.93 3.73 3.73 0 0 1 -3.15 3.81c-5.64 1-9.51 5.32-9.51 13.52v10.24a4 4 0 0 1 -4 3.93 3.9 3.9 0 0 1 -3.93-3.93zm21.88 13.92v-.14a18.12 18.12 0 0 1 18.51-18.12c10.63 0 18.44 8.07 18.44 18v.12c0 9.84-7.88 18-18.58 18s-18.36-8-18.36-17.86zm29 0v-.14c0-6.11-4.4-11.16-10.64-11.16s-10.43 5-10.43 11v.16c0 6 4.4 11.09 10.57 11.09 6.45.01 10.52-4.98 10.52-10.95zm14.21-13.92a3.92 3.92 0 0 1 3.94-4 4 4 0 0 1 4 4v1.71c2.23-3.22 5.45-6 10.83-6 7.81 0 12.34 5.25 12.34 13.26v18.51a3.86 3.86 0 0 1 -3.94 3.93 3.91 3.91 0 0 1 -4-3.93v-16.12c0-5.38-2.69-8.47-7.42-8.47s-7.81 3.22-7.81 8.6v15.95a4 4 0 0 1 -7.94 0zm45.15-7.41h-11.14a3.74 3.74 0 0 1 0-7.48h30.52a3.74 3.74 0 0 1 0 7.48h-11.22v34.78a4.07 4.07 0 0 1 -8.14 0zm20.44 21.33v-.14a18.12 18.12 0 0 1 18.51-18.12c10.63 0 18.44 8.07 18.44 18v.12c0 9.84-7.88 18-18.57 18s-18.36-8-18.36-17.86zm29 0v-.14c0-6.11-4.4-11.16-10.63-11.16s-10.44 5-10.44 11v.16c0 6 4.4 11.09 10.57 11.09 6.46.01 10.58-4.98 10.58-10.95zm20.1 14.17-9.32-26.38a6.48 6.48 0 0 1 -.39-2 3.72 3.72 0 0 1 3.87-3.68 4 4 0 0 1 3.87 3.15l6.7 21 6.75-21a4.23 4.23 0 0 1 4.07-3.15h.46a4.21 4.21 0 0 1 4.07 3.15l6.83 21 6.76-21.06a4 4 0 0 1 3.87-3.09 3.69 3.69 0 0 1 3.74 3.68 6.65 6.65 0 0 1 -.33 1.77l-9.45 26.64c-.85 2.43-2.49 3.55-4.4 3.55h-.26a4.41 4.41 0 0 1 -4.33-3.42l-6.76-20.6-6.77 20.57a4.41 4.41 0 0 1 -4.27 3.42h-.26c-1.99 0-3.63-1.12-4.42-3.55zm83.65-28.09a3.92 3.92 0 0 1 3.94-4 4 4 0 0 1 4 4v3.55c1.84-4.33 5.25-7.61 8.73-7.61a3.68 3.68 0 0 1 3.94 3.93 3.73 3.73 0 0 1 -3.15 3.81c-5.64 1-9.52 5.32-9.52 13.52v10.24a4 4 0 0 1 -4 3.93 3.9 3.9 0 0 1 -3.94-3.93zm21.9-19.15h-1.71a.81.81 0 0 1 -.81-.81.82.82 0 0 1 .81-.82h5.18a.82.82 0 0 1 .82.82.82.82 0 0 1 -.82.81h-1.7v5.61a.89.89 0 1 1 -1.77 0zm5.77-.79a.88.88 0 0 1 .88-.89h.2a.92.92 0 0 1 .81.46l2.14 3.49 2.15-3.5a.86.86 0 0 1 .79-.45h.2a.89.89 0 0 1 .89.89v6.4a.89.89 0 1 1 -1.77 0v-4l-1.55 2.4a.83.83 0 0 1 -1.47 0l-1.53-2.36v4a.87.87 0 0 1 -.88.87.86.86 0 0 1 -.86-.87zm-388.2 27.1c3.41-1.77 6.56-4.73 6.56-10.24v-.14a10.32 10.32 0 0 0 -3.08-7.62c-2.63-2.62-6.76-4.06-12-4.06h-16.55a4 4 0 0 0 -4.07 4.07v37.81a4 4 0 0 0 4.07 4.07h17.19c10.24 0 17-4.4 17-12.6v-.14c0-6.23-3.74-9.32-9.12-11.15zm1.05 10.43c0 4.14-3.35 6.3-8.86 6.3h-13.39v-31.63h11.62c5.18 0 8.07 2.23 8.07 5.84v.13c0 4.2-3.48 6.24-8.66 6.24a3.4 3.4 0 0 0 .09 6.8h1.68c6.36 0 9.45 2.3 9.45 6.17zm335-3.67a2.62 2.62 0 0 0 2.62 2.62h11.92a3.71 3.71 0 0 0 3.75-3.8c0-8-5.45-17.07-16.48-17.07-9.91 0-16.93 8.14-16.93 18v.13c0 10.7 7.75 18 17.79 18a17.8 17.8 0 0 0 12.47-4.59 3.46 3.46 0 0 0 1-2.43 3.12 3.12 0 0 0 -3.15-3.21 3 3 0 0 0 -2 .72 12.5 12.5 0 0 1 -8.2 3c-5.12 0-9.12-3.15-10-8.8a23.2 23.2 0 0 1 -.21-2.63 22.52 22.52 0 0 1 .15-2.62c.72-5.38 4.13-9.12 9-9.12 5.25 0 8.27 4 8.79 9.12h-7.92a2.62 2.62 0 0 0 -2.64 2.68z" fill="#fff"/></svg>