<svg viewBox="0 0 173.91 138.39" xmlns="http://www.w3.org/2000/svg"><path d="m29.1 122.51a.93.93 0 1 1 1.86 0v6.49h9.5v-6.49a1 1 0 0 1 .95-.94.93.93 0 0 1 .91.94v14.82a.93.93 0 0 1 -.91.94 1 1 0 0 1 -.95-.94v-6.59h-9.46v6.59a.93.93 0 1 1 -1.86 0zm29 9.6-3.79-8.43-3.79 8.43-.73 1.69-1.71 3.83a.94.94 0 0 1 -.9.64.84.84 0 0 1 -.84-.85 1.1 1.1 0 0 1 .11-.49l6.69-14.61a1.19 1.19 0 0 1 1.17-.82h.1a1.18 1.18 0 0 1 1.15.82l6.68 14.59a1.26 1.26 0 0 1 .12.47.89.89 0 0 1 -.9.89 1 1 0 0 1 -.91-.68l-1.72-3.79zm30.9 5.45-6.35-14.65a.87.87 0 0 1 -.1-.42 1 1 0 0 1 .94-.92 1 1 0 0 1 1 .7l5.69 13.65 5.72-13.69a1.08 1.08 0 0 1 .92-.66.91.91 0 0 1 .91.89 1 1 0 0 1 -.07.38l-6.37 14.72a1.14 1.14 0 0 1 -1.08.78h-.1a1.12 1.12 0 0 1 -1.11-.78zm12.7-.35v-14.58a1 1 0 0 1 .92-.95h10.23a.85.85 0 0 1 0 1.7h-9.29v5.62h5.57a.86.86 0 0 1 .85.85.85.85 0 0 1 -.85.85h-5.57v5.76h9.44a.85.85 0 0 1 .85.85.84.84 0 0 1 -.85.84h-10.37a.94.94 0 0 1 -.92-.94zm15.76-1a.84.84 0 0 1 -.35-.71.89.89 0 0 1 .89-.92.84.84 0 0 1 .56.21 7.51 7.51 0 0 0 5.2 2c2.21 0 3.67-1.18 3.67-2.8 0-1.53-.82-2.4-4.28-3.13-3.79-.82-5.53-2-5.53-4.75 0-2.58 2.28-4.49 5.41-4.49a8.42 8.42 0 0 1 5.25 1.62 1 1 0 0 1 .4.76.89.89 0 0 1 -.89.89.94.94 0 0 1 -.55-.16 6.8 6.8 0 0 0 -4.25-1.44c-2.14 0-3.51 1.18-3.51 2.66 0 1.55.85 2.42 4.47 3.2s5.36 2.14 5.36 4.65c0 2.82-2.35 4.66-5.62 4.66a9.65 9.65 0 0 1 -6.22-2.28zm20.54-12.81h-4.77a.86.86 0 0 1 -.87-.84.89.89 0 0 1 .87-.88h11.43a.89.89 0 0 1 .87.88.86.86 0 0 1 -.87.84h-4.78v13.93a.94.94 0 0 1 -1.88 0zm-58.6 3.23a4.55 4.55 0 0 0 -1.27-3.25 6.53 6.53 0 0 0 -4.69-1.65h-6.13a1 1 0 0 0 -.92.95v14.7a.93.93 0 1 0 1.86 0v-13.98h5.08c2.66 0 4.21 1.23 4.21 3.25 0 2.11-1.76 3.38-4.23 3.38a.78.78 0 0 0 -.63 1.25l4.93 6.44a1.11 1.11 0 0 0 .88.49 1 1 0 0 0 .94-.92 1 1 0 0 0 -.31-.68l-4.12-5.21c2.59-.49 4.43-2.07 4.43-4.77zm-23.8 5.94a1.25 1.25 0 0 0 -1.25-1.25 1.26 1.26 0 1 0 0 2.51 1.25 1.25 0 0 0 1.25-1.26z" fill="#fff" opacity=".5"/><path d="m110.34 61a16.43 16.43 0 0 1 -1.31 2 7.65 7.65 0 1 1 -11.81 6.42c-.4 0-.81 0-1.21 0s-.77 0-1.15 0a10 10 0 1 0 15.48-8.42z" fill="#ccc"/><path d="m79.15 57.3a3.58 3.58 0 0 1 -2.69-1.23c-.4.34-.82.66-1.25 1a5.14 5.14 0 0 0 3.94 1.84 5 5 0 0 0 1.45-.21 12.93 12.93 0 0 1 -.48-1.49 3.85 3.85 0 0 1 -.97.09z" fill="#e6e6e6"/><path d="m52.68 44.39a13.95 13.95 0 1 1 13.94 14 14 14 0 0 1 -13.94-14zm2.83 0a11.12 11.12 0 1 0 11.11-11.11 11.13 11.13 0 0 0 -11.11 11.11z" fill="#b3b3b3"/><path d="m74.57 27a3.52 3.52 0 0 1 -2.07.66 3.57 3.57 0 0 1 -.59-7.1c-.11-.51-.18-1-.24-1.55a5.15 5.15 0 1 0 3.82 9.26c-.32-.45-.63-.88-.92-1.27z" fill="#e1e1e1"/><path d="m73.11 16.84a16.85 16.85 0 1 1 16.89 16.85 16.87 16.87 0 0 1 -16.89-16.85zm3.14 0a13.71 13.71 0 1 0 13.75-13.7 13.72 13.72 0 0 0 -13.75 13.7z" fill="#9a9a9a"/><path d="m109.59 27.23a10.57 10.57 0 0 0 -10.5 9.52 16.51 16.51 0 0 1 2.32.62 8.2 8.2 0 1 1 9.47 8.52 17.31 17.31 0 0 1 .87 2.24 10.56 10.56 0 0 0 -2.16-20.9z" fill="#c7c7c7"/><path d="m63.46 70.74a11.22 11.22 0 1 1 11.22 11.26 11.23 11.23 0 0 1 -11.22-11.26zm2.36 0a8.86 8.86 0 1 0 8.86-8.86 8.86 8.86 0 0 0 -8.86 8.86z" fill="#c2c2c2"/><path d="m112.69 51.37a3.44 3.44 0 1 1 3.44 3.43 3.44 3.44 0 0 1 -3.44-3.43zm1.18 0a2.26 2.26 0 1 0 2.26-2.26 2.26 2.26 0 0 0 -2.26 2.26z" fill="#e6e6e6"/><path d="m83.8 41.9c.38-.43.79-.83 1.21-1.22a5.2 5.2 0 0 1 -1.73-6.68 16.77 16.77 0 0 1 -1.56-.69 6.9 6.9 0 0 0 2.08 8.59z" fill="#e1e1e1"/><path d="m93.14 36.71a16 16 0 0 1 1.71-.21s0-.1 0-.15a6.75 6.75 0 0 0 -.22-1.69c-.54.14-1.1.26-1.67.35a5 5 0 0 1 .19 1.34c.01.12 0 .24-.01.36z" fill="#e1e1e1"/><path d="m80.89 52.91a15.12 15.12 0 1 1 15.11 15.09 15.13 15.13 0 0 1 -15.11-15.09zm2.83 0a12.29 12.29 0 1 0 12.28-12.29 12.3 12.3 0 0 0 -12.28 12.29z" fill="#aeaeae"/><path d="m0 100a12.62 12.62 0 0 1 12.85-12.92 13 13 0 0 1 8.55 2.82 2.18 2.18 0 0 1 .85 1.74 2.18 2.18 0 0 1 -3.48 1.71 9.05 9.05 0 0 0 -5.95-2.24c-4.74 0-8.23 3.91-8.23 8.79v.1c0 4.88 3.46 8.83 8.23 8.83a9 9 0 0 0 6.23-2.38 2 2 0 0 1 1.32-.5 2.08 2.08 0 0 1 2.06 2 2.13 2.13 0 0 1 -.71 1.57 12.75 12.75 0 0 1 -9 3.34 12.53 12.53 0 0 1 -12.72-12.86zm117.62 0a13 13 0 0 1 26.06-.07v.07a13 13 0 0 1 -26.06.07zm21.47 0a8.54 8.54 0 0 0 -8.48-8.86c-5 0-8.4 4-8.4 8.79v.07a8.51 8.51 0 0 0 8.47 8.83c4.95-.03 8.41-3.94 8.41-8.83zm13.1-10.46a2.2 2.2 0 0 1 2.21-2.21h.46a2.76 2.76 0 0 1 2.28 1.28l12.46 16.13v-15.27a2.16 2.16 0 0 1 4.31 0v20.94a2.13 2.13 0 0 1 -2.14 2.17h-.18a2.75 2.75 0 0 1 -2.27-1.32l-12.82-16.59v15.81a2.16 2.16 0 0 1 -4.31 0zm-106.67 13-4.38-10.08-4.38 10.08-1.67 3.88-2.1 4.8a2.1 2.1 0 0 1 -2 1.39 2 2 0 0 1 -2-2 2.16 2.16 0 0 1 .28-1l9.26-20.66a2.79 2.79 0 0 1 2.64-1.78h.21a2.74 2.74 0 0 1 2.6 1.78l9.26 20.66a2 2 0 0 1 .25.92 2.06 2.06 0 0 1 -2.07 2.1 2.26 2.26 0 0 1 -2.14-1.53l-2-4.66zm35.74-7.09v-.07a7.55 7.55 0 0 0 -2.07-5.38 10 10 0 0 0 -7.19-2.49h-8.9a2.17 2.17 0 0 0 -2.21 2.21v20.72a2.19 2.19 0 0 0 4.38 0v-18.16a.78.78 0 0 1 .78-.78h5.6c3.24 0 5.16 1.46 5.16 4.13v.07c0 2.5-2 4.13-5 4.16a1.94 1.94 0 0 0 -1.57 3.14l6.6 8.43a2.5 2.5 0 0 0 2.16 1.18 2.06 2.06 0 0 0 2.1-2 2.52 2.52 0 0 0 -.71-1.67l-4.77-6c3.38-1.08 5.64-3.5 5.64-7.49zm24.55 4a6 6 0 0 0 3.56-5.56v-.07a5.56 5.56 0 0 0 -1.68-4.13c-1.42-1.43-3.66-2.21-6.51-2.21h-9a2.17 2.17 0 0 0 -2.18 2.22v20.51a2.17 2.17 0 0 0 2.21 2.21h9.32c5.56 0 9.23-2.39 9.23-6.84v-.07c0-3.38-2.03-5.06-4.95-6.05zm.57 5.66c0 2.24-1.82 3.42-4.81 3.42h-7.26v-17.16h6.3c2.81 0 4.38 1.21 4.38 3.17v.07c0 2.28-1.89 3.39-4.7 3.39a1.85 1.85 0 0 0 0 3.69h.91c3.45 0 5.13 1.25 5.13 3.35zm-65.2-2.41a2.31 2.31 0 1 0 2.3 2.31 2.3 2.3 0 0 0 -2.3-2.3z" fill="#fff"/></svg>