<svg viewBox="0 0 216.95 40.75" xmlns="http://www.w3.org/2000/svg"><path d="m0 23.13a6.28 6.28 0 0 1 6.4-6.42 6.47 6.47 0 0 1 4.26 1.4 1.09 1.09 0 0 1 .43.87 1.06 1.06 0 0 1 -1.09 1.02 1.09 1.09 0 0 1 -.65-.21 4.52 4.52 0 0 0 -3-1.12 4.18 4.18 0 0 0 -4.1 4.38 4.18 4.18 0 0 0 4.1 4.4 4.47 4.47 0 0 0 3.1-1.19 1 1 0 0 1 .66-.25 1 1 0 0 1 1 1 1.06 1.06 0 0 1 -.35.78 6.34 6.34 0 0 1 -4.51 1.67 6.25 6.25 0 0 1 -6.25-6.33z" fill="#1a1a1a"/><path d="m58.59 23.13a6.49 6.49 0 0 1 13 0 6.49 6.49 0 0 1 -13 0zm10.69 0a4.25 4.25 0 0 0 -4.22-4.42 4.19 4.19 0 0 0 -4.18 4.38 4.24 4.24 0 0 0 4.22 4.4 4.19 4.19 0 0 0 4.18-4.36z" fill="#1a1a1a"/><path d="m75.81 17.92a1.1 1.1 0 0 1 1.1-1.1h.23a1.38 1.38 0 0 1 1.14.64l6.2 8v-7.6a1.08 1.08 0 0 1 2.15 0v10.43a1.06 1.06 0 0 1 -1.06 1.09h-.09a1.38 1.38 0 0 1 -1.14-.66l-6.34-8.27v7.88a1.08 1.08 0 0 1 -2.15 0z" fill="#1a1a1a"/><path d="m22.68 24.37-2.19-5-2.18 5-.83 1.94-1.05 2.39a1 1 0 0 1 -1 .69 1 1 0 0 1 -1-1 1 1 0 0 1 .14-.49l4.59-10.3a1.39 1.39 0 0 1 1.32-.89h.1a1.37 1.37 0 0 1 1.3.89l4.61 10.29a.93.93 0 0 1 .12.46 1 1 0 0 1 -1 1 1.13 1.13 0 0 1 -1.06-.76l-1-2.32z" fill="#1a1a1a"/><path d="m40.48 20.84a3.74 3.74 0 0 0 -1-2.68 5 5 0 0 0 -3.58-1.24h-4.47a1.08 1.08 0 0 0 -1.1 1.1v10.29a1.07 1.07 0 0 0 1.1 1.08 1.06 1.06 0 0 0 1.08-1.08v-9a.39.39 0 0 1 .39-.39h2.79c1.61 0 2.57.72 2.57 2.05 0 1.24-1 2.06-2.5 2.07a1 1 0 0 0 -1 1 1 1 0 0 0 .22.61l3.29 4.21a1.26 1.26 0 0 0 1.06.56 1 1 0 0 0 1-1 1.25 1.25 0 0 0 -.36-.83l-2.37-3a3.67 3.67 0 0 0 2.88-3.75z" fill="#1a1a1a"/><path d="m52.71 22.84a3 3 0 0 0 1.77-2.77 2.77 2.77 0 0 0 -.83-2.07 4.49 4.49 0 0 0 -3.25-1.1h-4.47a1.08 1.08 0 0 0 -1.1 1.1v10.2a1.08 1.08 0 0 0 1.1 1.1h4.65c2.76 0 4.59-1.19 4.59-3.41 0-1.72-1.01-2.55-2.46-3.05zm.29 2.82c0 1.12-.9 1.7-2.39 1.7h-3.61v-8.55h3.14c1.4 0 2.18.61 2.18 1.58 0 1.13-.94 1.68-2.34 1.68a.92.92 0 0 0 .02 1.93h.46c1.72 0 2.55.62 2.55 1.66z" fill="#1a1a1a"/><circle cx="20.51" cy="25.61" r="1.15"/><g fill="#666"><path d="m129.94 17.56a.7.7 0 1 1 1.39 0v4.85h7.1v-4.85a.7.7 0 1 1 1.39 0v11.07a.7.7 0 1 1 -1.39 0v-4.92h-7.1v4.92a.7.7 0 1 1 -1.39 0z"/><path d="m174.7 28.81-4.7-10.95a.68.68 0 0 1 -.07-.32.71.71 0 0 1 .71-.68.79.79 0 0 1 .72.53l4.25 10.19 4.27-10.23a.81.81 0 0 1 .69-.49.68.68 0 0 1 .68.67.87.87 0 0 1 0 .28l-4.76 11a.86.86 0 0 1 -.81.58h-.07a.83.83 0 0 1 -.91-.58z"/><path d="m184.19 28.55v-10.9a.7.7 0 0 1 .69-.7h7.64a.63.63 0 0 1 0 1.26h-6.94v4.2h4.16a.64.64 0 0 1 .63.63.63.63 0 0 1 -.63.64h-4.16v4.32h7a.64.64 0 0 1 0 1.27h-7.73a.71.71 0 0 1 -.66-.72z"/><path d="m196 27.77a.61.61 0 0 1 -.26-.53.66.66 0 0 1 .66-.68.62.62 0 0 1 .43.16 5.58 5.58 0 0 0 3.88 1.46c1.65 0 2.74-.88 2.74-2.1 0-1.14-.61-1.79-3.2-2.34-2.83-.61-4.13-1.53-4.13-3.55 0-1.94 1.71-3.36 4-3.36a6.25 6.25 0 0 1 3.88 1.17.73.73 0 0 1 .3.57.67.67 0 0 1 -.67.66.63.63 0 0 1 -.4-.12 5.12 5.12 0 0 0 -3.14-1.11c-1.6 0-2.62.88-2.62 2 0 1.16.63 1.81 3.34 2.39s4 1.6 4 3.48c0 2.11-1.76 3.48-4.2 3.48a7.18 7.18 0 0 1 -4.61-1.58z"/><path d="m211.32 18.23h-3.57a.64.64 0 0 1 -.65-.63.66.66 0 0 1 .65-.65h8.55a.66.66 0 0 1 .65.65.64.64 0 0 1 -.65.63h-3.57v10.4a.71.71 0 1 1 -1.41 0z"/><path d="m167.54 20.64a3.36 3.36 0 0 0 -.95-2.42 4.83 4.83 0 0 0 -3.5-1.23h-4.6a.7.7 0 0 0 -.69.7v11a.7.7 0 1 0 1.39 0v-10.46h3.81c2 0 3.14.91 3.14 2.42 0 1.58-1.31 2.53-3.16 2.53a.58.58 0 0 0 -.47.93l3.68 4.89a.8.8 0 0 0 .65.37.73.73 0 0 0 .7-.69.77.77 0 0 0 -.23-.51l-3.06-3.94c1.92-.39 3.29-1.57 3.29-3.59z"/><path d="m151.59 24.75-2.81-6.26-2.78 6.26-.58 1.25-1.28 2.85a.7.7 0 0 1 -.67.48.63.63 0 0 1 -.63-.63.8.8 0 0 1 .09-.37l5-10.87a.92.92 0 0 1 .88-.61h.07a.87.87 0 0 1 .85.61l5 10.85a.83.83 0 0 1 .09.35.67.67 0 0 1 -.66.67.75.75 0 0 1 -.68-.51l-1.34-2.82z"/><path d="m148.8 26a.93.93 0 0 1 0-1.86.93.93 0 1 1 0 1.86z"/></g><path d="m120.18 30.32a9 9 0 0 1 -.64 1 3.81 3.81 0 1 1 -5.88 3.2h-.6-.57a5 5 0 1 0 7.69-4.17z" fill="#ccc"/><path d="m104.68 28.49a1.78 1.78 0 0 1 -1.34-.61 6.74 6.74 0 0 1 -.62.47 2.55 2.55 0 0 0 2 .92 2.46 2.46 0 0 0 .72-.1 6 6 0 0 1 -.24-.75 1.59 1.59 0 0 1 -.52.07z" fill="#e6e6e6"/><path d="m91.51 22.07a6.94 6.94 0 1 1 6.94 6.93 6.95 6.95 0 0 1 -6.94-6.93zm1.41 0a5.53 5.53 0 1 0 5.53-5.52 5.54 5.54 0 0 0 -5.53 5.52z" fill="#b3b3b3"/><path d="m102.4 13.4a1.77 1.77 0 0 1 -1 .34 1.78 1.78 0 0 1 -.29-3.54 6.51 6.51 0 0 1 -.13-.77 2.56 2.56 0 0 0 .42 5.09 2.51 2.51 0 0 0 1.49-.49 7.26 7.26 0 0 1 -.49-.63z" fill="#e1e1e1"/><path d="m101.67 8.38a8.38 8.38 0 1 1 8.38 8.37 8.39 8.39 0 0 1 -8.38-8.37zm1.56 0a6.82 6.82 0 1 0 6.82-6.82 6.83 6.83 0 0 0 -6.82 6.82z" fill="#9a9a9a"/><path d="m119.81 13.54a5.25 5.25 0 0 0 -5.22 4.73 8.85 8.85 0 0 1 1.15.31 4.08 4.08 0 1 1 4.71 4.24 7.49 7.49 0 0 1 .43 1.11 5.25 5.25 0 0 0 -1.07-10.39z" fill="#c7c7c7"/><path d="m96.88 35.17a5.58 5.58 0 1 1 5.57 5.58 5.58 5.58 0 0 1 -5.57-5.58zm1.17 0a4.41 4.41 0 1 0 4.4-4.4 4.41 4.41 0 0 0 -4.4 4.4z" fill="#c2c2c2"/><path d="m121.35 25.54a1.71 1.71 0 1 1 1.71 1.71 1.72 1.72 0 0 1 -1.71-1.71zm.59 0a1.13 1.13 0 1 0 1.12-1.12 1.12 1.12 0 0 0 -1.12 1.12z" fill="#e6e6e6"/><path d="m107 20.83q.29-.31.6-.6a2.6 2.6 0 0 1 -1.14-2.15 2.53 2.53 0 0 1 .28-1.17c-.27-.11-.52-.22-.78-.35a3.5 3.5 0 0 0 -.35 1.52 3.44 3.44 0 0 0 1.39 2.75z" fill="#ccc"/><path d="m111.63 18.25c.28 0 .57-.08.85-.1 0 0 0 0 0-.07a3.35 3.35 0 0 0 -.11-.85c-.27.07-.55.13-.83.18a2.41 2.41 0 0 1 .09.67.91.91 0 0 1 0 .17z" fill="#ccc"/><path d="m105.54 26.31a7.52 7.52 0 1 1 7.52 7.51 7.52 7.52 0 0 1 -7.52-7.51zm1.41 0a6.11 6.11 0 1 0 6.11-6.11 6.12 6.12 0 0 0 -6.06 6.11z" fill="#aeaeae"/></svg>