<svg viewBox="0 0 67.5 67.5" xmlns="http://www.w3.org/2000/svg"><g fill="#4d9a00"><path d="m25.87 56.25a1.13 1.13 0 0 1 -1.11-1c0-.13-.24-1.3-1.14-1.3a1.13 1.13 0 0 1 0-2.25c2.27 0 3.2 2.1 3.37 3.21a1.13 1.13 0 0 1 -.94 1.28z"/><path d="m30.37 42.75a1.12 1.12 0 0 1 -1.12-1.12 12.42 12.42 0 0 1 1.36-4.35 11.58 11.58 0 0 0 .89-2.4c0-.2 0-.47 0-.78.1-1.6.28-4.58-1.84-6.21a12.48 12.48 0 0 1 -3.66-4.89c-1.09-2.35-2.92-2.73-6.86-2.73a1.13 1.13 0 0 1 0-2.25c4 0 7.16.3 8.9 4a10.34 10.34 0 0 0 3 4.08c3.07 2.35 2.84 6.25 2.72 8.13v.64a9.52 9.52 0 0 1 -1.08 3.3 12.17 12.17 0 0 0 -1.17 3.45 1.12 1.12 0 0 1 -1.14 1.13z"/><path d="m19.12 20.25c-13.46 0-15.8-13-16.67-18l-.18-.95a1.12 1.12 0 0 1 2.14-.61c3.59 8.61 17.86 10.56 20.34 10.56a1.13 1.13 0 0 1 0 2.25c-2.34 0-13.08-1.39-19.17-7.28 1.42 5.35 4.64 11.78 13.54 11.78a1.13 1.13 0 1 1 0 2.25z"/><path d="m14.62 31.5c-6.75 0-14-6.77-14.27-7.06a1.14 1.14 0 0 1 -.18-1.44c4-6.25 11.23-5.62 16-5.2 1.09.09 2.08.18 2.92.18a1.13 1.13 0 1 1 0 2.25c-.89 0-2-.09-3.11-.19-4.51-.39-10.07-.88-13.39 3.39 1.91 1.63 7.27 5.8 12 5.8a1.13 1.13 0 1 1 0 2.25z"/><path d="m20.25 50.63a.83.83 0 0 1 -.22 0 1.11 1.11 0 0 1 -.88-1.32l1.12-5.62c0-2.06-1.63-3.62-3.34-5.28s-3.43-3.33-3.43-5.75a9.63 9.63 0 0 1 2-5.57 6.24 6.24 0 0 0 1.38-3.43c-.01-7.77 8.8-14.66 15.74-14.66h2.84c6.83 0 15.16 6.75 15.16 14.63a6.26 6.26 0 0 0 1.38 3.43 9.63 9.63 0 0 1 2 5.57c0 2.49-1.86 4-3.51 5.3s-3.24 2.61-3.24 4.82l1.11 6.57a1.13 1.13 0 0 1 -2.22.37l-1.14-6.75c0-3.48 2.25-5.3 4.06-6.76s2.67-2.21 2.67-3.55a7.49 7.49 0 0 0 -1.63-4.34 8.22 8.22 0 0 1 -1.75-4.66c0-6.38-7.27-12.38-12.91-12.38h-2.82c-5.77 0-13.5 6.12-13.5 12.38a8.22 8.22 0 0 1 -1.74 4.66 7.49 7.49 0 0 0 -1.63 4.34c0 1.47 1.27 2.71 2.74 4.13 1.88 1.83 4 3.89 4 7.12l-1.15 5.84a1.11 1.11 0 0 1 -1.09.91z"/><path d="m40.5 61.88a5.47 5.47 0 0 1 -4-2 3.36 3.36 0 0 0 -5.5 0 5.47 5.47 0 0 1 -4 2c-7.44 0-9-3.67-9-6.75 0-7 3.37-7.88 5.83-8.55a4.8 4.8 0 0 0 2-.86 10.14 10.14 0 0 0 1.26-1.65c1.11-1.67 2.36-3.57 6.63-3.57s5.52 1.9 6.63 3.57a9.61 9.61 0 0 0 1.26 1.65 4.8 4.8 0 0 0 2 .86c2.46.67 5.83 1.58 5.83 8.55.06 3.08-1.5 6.75-8.94 6.75zm-6.75-5.63a5.83 5.83 0 0 1 4.31 2c.88.85 1.42 1.33 2.44 1.33 6 0 6.75-2.41 6.75-4.5 0-5.25-1.93-5.77-4.17-6.38a6.28 6.28 0 0 1 -3-1.44 11.41 11.41 0 0 1 -1.55-2c-1-1.54-1.69-2.56-4.75-2.56s-3.78 1.07-4.78 2.61a11.41 11.41 0 0 1 -1.55 2 6.32 6.32 0 0 1 -3 1.44c-2.24.61-4.17 1.13-4.17 6.38 0 2.09.77 4.5 6.75 4.5 1 0 1.56-.48 2.44-1.33a5.83 5.83 0 0 1 4.28-2.05z"/><path d="m33.75 67.5c-5.37 0-7.62-2.42-9.79-4.76-.37-.4-.74-.8-1.13-1.19a1.12 1.12 0 1 1 1.59-1.55c.41.41.8.83 1.19 1.25 2 2.17 3.75 4 8.14 4s6.13-1.87 8.14-4c.39-.42.78-.84 1.19-1.25a1.12 1.12 0 1 1 1.59 1.59c-.39.39-.76.79-1.13 1.19-2.17 2.3-4.42 4.72-9.79 4.72z"/><path d="m41.63 56.25h-.18a1.13 1.13 0 0 1 -.94-1.25c.17-1.11 1.1-3.21 3.36-3.21a1.13 1.13 0 1 1 0 2.25c-.92 0-1.13 1.28-1.13 1.3a1.13 1.13 0 0 1 -1.11.91z"/><path d="m48.37 20.25a1.13 1.13 0 0 1 0-2.25c8.91 0 12.12-6.43 13.55-11.78-6.09 5.89-16.83 7.28-19.17 7.28a1.13 1.13 0 1 1 0-2.25c2.48 0 16.75-1.95 20.34-10.56a1.12 1.12 0 0 1 2.14.65l-.18 1c-.87 4.86-3.21 17.91-16.68 17.91z"/><path d="m52.87 31.5a1.13 1.13 0 0 1 0-2.25c4.75 0 10.1-4.17 12-5.8-3.32-4.27-8.88-3.78-13.39-3.39-1.16.1-2.22.19-3.12.19a1.13 1.13 0 0 1 0-2.25c.85 0 1.84-.09 2.93-.18 4.8-.42 12.06-1.05 16 5.2a1.14 1.14 0 0 1 -.18 1.42c-.26.29-7.48 7.06-14.24 7.06z"/><path d="m23.62 36a3.38 3.38 0 1 1 3.38-3.37 3.37 3.37 0 0 1 -3.38 3.37zm0-4.5a1.13 1.13 0 1 0 1.13 1.13 1.13 1.13 0 0 0 -1.13-1.13z"/><path d="m43.87 36a3.38 3.38 0 1 1 3.38-3.37 3.37 3.37 0 0 1 -3.38 3.37zm0-4.5a1.13 1.13 0 1 0 1.13 1.13 1.13 1.13 0 0 0 -1.13-1.13z"/></g></svg>