<svg viewBox="0 0 54 65.25" xmlns="http://www.w3.org/2000/svg"><g fill="#4d9a00"><path d="m34.88 65.25h-22.5a1.12 1.12 0 0 1 -1.11-.92l-6.75-36a1.13 1.13 0 0 1 .24-.92 1.11 1.11 0 0 1 .86-.41h33.76a1.12 1.12 0 0 1 .84.38 1.15 1.15 0 0 1 .27.89l-4.5 36a1.12 1.12 0 0 1 -1.11.98zm-21.57-2.25h20.57l4.22-33.75h-31.1z"/><path d="m46.12 29.25h-45a1.12 1.12 0 0 1 -1.12-1.12v-6.75a1.12 1.12 0 0 1 1.12-1.13h45a1.12 1.12 0 0 1 1.13 1.13v6.75a1.12 1.12 0 0 1 -1.13 1.12zm-43.87-2.25h42.75v-4.5h-42.75z"/><path d="m39.38 22.5a1.12 1.12 0 0 1 -1.13-1.12c0-8.38-6.77-14.63-15.75-14.63s-15.75 6.25-15.75 14.63a1.13 1.13 0 0 1 -2.25 0c0-9.62 7.74-16.88 18-16.88s18 7.26 18 16.88a1.12 1.12 0 0 1 -1.12 1.12z"/><path d="m16.88 60.75a1.17 1.17 0 0 1 -.45-.09 1.13 1.13 0 0 1 -.59-1.48l22.5-51.75a1.2 1.2 0 0 1 .53-.56l13.5-6.75a1.12 1.12 0 0 1 1 2l-13.13 6.58-22.33 51.37a1.13 1.13 0 0 1 -1.03.68z"/><path d="m37.12 45h-28.12a1.13 1.13 0 0 1 0-2.25h28.12a1.13 1.13 0 1 1 0 2.25z"/></g></svg>