<svg viewBox="0 0 56.25 67.49" xmlns="http://www.w3.org/2000/svg"><g fill="#4d9a00"><path d="m34.88 33.75h-31.5a3.37 3.37 0 0 1 -3.38-3.37v-2.26a3.37 3.37 0 0 1 3.38-3.37h31.5a3.37 3.37 0 0 1 3.37 3.37v2.26a3.37 3.37 0 0 1 -3.37 3.37zm-31.5-6.75a1.13 1.13 0 0 0 -1.13 1.12v2.26a1.13 1.13 0 0 0 1.13 1.12h31.5a1.12 1.12 0 0 0 1.12-1.12v-2.26a1.12 1.12 0 0 0 -1.12-1.12z"/><path d="m19.12 56.25h-15.74a3.37 3.37 0 0 1 -3.38-3.37v-2.26a3.37 3.37 0 0 1 3.38-3.37h18a1.13 1.13 0 0 1 0 2.25h-18a1.13 1.13 0 0 0 -1.13 1.12v2.26a1.13 1.13 0 0 0 1.13 1.12h15.74a1.13 1.13 0 1 1 0 2.25z"/><path d="m34.88 11.25h-31.5a3.37 3.37 0 0 1 -3.38-3.37v-2.26a3.37 3.37 0 0 1 3.38-3.37h31.5a3.37 3.37 0 0 1 3.37 3.37v2.26a3.37 3.37 0 0 1 -3.37 3.37zm-31.5-6.75a1.13 1.13 0 0 0 -1.13 1.12v2.26a1.13 1.13 0 0 0 1.13 1.12h31.5a1.12 1.12 0 0 0 1.12-1.12v-2.26a1.12 1.12 0 0 0 -1.12-1.12z"/><path d="m34.88 27h-31.5a1.12 1.12 0 0 1 -1.13-1.12v-15.76a1.12 1.12 0 0 1 1.13-1.12h31.5a1.12 1.12 0 0 1 1.12 1.12v15.76a1.12 1.12 0 0 1 -1.12 1.12zm-30.38-2.25h29.25v-13.5h-29.25z"/><path d="m12.38 2.25h-6.76a1.12 1.12 0 0 1 -1.12-1.13 1.12 1.12 0 0 1 1.12-1.12h6.76a1.12 1.12 0 0 1 1.12 1.12 1.12 1.12 0 0 1 -1.12 1.13z"/><path d="m37.38 67.49a12.62 12.62 0 0 1 -8.93-21.55c4.95-4.94 15.11-9.94 26.67-9.94a1.13 1.13 0 0 1 .8 1.92c-3 3-4.14 8.58-5.28 14-1 4.9-2 9.54-4.33 11.86a12.6 12.6 0 0 1 -8.93 3.71zm15.35-29.17c-9.9.62-18.41 4.93-22.69 9.21a10.38 10.38 0 1 0 14.68 14.68c1.85-1.85 2.76-6.17 3.72-10.73 1-4.77 2.03-9.66 4.29-13.16z"/><path d="m30.38 65.25a1.12 1.12 0 0 1 -1.13-1.13c0-7.36 10.24-16.87 12.37-16.87a1.13 1.13 0 0 1 .17 2.24c-1.71.69-10.29 8.56-10.29 14.63a1.12 1.12 0 0 1 -1.12 1.13z"/><path d="m21.38 49.5h-18a1.12 1.12 0 0 1 -1.13-1.12v-15.76a1.12 1.12 0 0 1 1.13-1.12h31.5a1.12 1.12 0 0 1 1.12 1.12v2.26a1.13 1.13 0 0 1 -2.25 0v-1.13h-29.25v13.5h16.88a1.13 1.13 0 0 1 0 2.25z"/></g></svg>