<svg viewBox="0 0 70 70" xmlns="http://www.w3.org/2000/svg"><g fill="#4d9a00"><path d="m39.77 47.5a1.13 1.13 0 0 1 -.8-.33l-19.12-19.12a1.13 1.13 0 0 1 1.59-1.6l19.12 19.13a1.12 1.12 0 0 1 0 1.59 1.11 1.11 0 0 1 -.79.33z"/><path d="m10.52 57.62a1.12 1.12 0 0 1 -.8-.32c-3.84-3.85-2.52-10.3 1.13-13.97l9-9a1.12 1.12 0 1 1 1.59 1.59l-9 9c-2.82 2.82-4 7.94-1.13 10.78a1.13 1.13 0 0 1 0 1.6 1.09 1.09 0 0 1 -.79.32z"/><path d="m61.14 49.75h-21.37a1.13 1.13 0 1 1 0-2.25h21.37a1.13 1.13 0 1 1 0 2.25z"/><path d="m16.64 65.94a14.57 14.57 0 0 1 -10.34-4.28l-1-1a14.61 14.61 0 0 1 -.03-20.66l29.81-29.88a14.65 14.65 0 0 1 20.69 0l1 1a14.63 14.63 0 0 1 0 20.68l-29.77 29.86a14.59 14.59 0 0 1 -10.36 4.28zm28.79-57.84a12.3 12.3 0 0 0 -8.75 3.62l-29.82 29.82a12.36 12.36 0 0 0 0 17.5l1 1a12.38 12.38 0 0 0 17.5 0l29.85-29.79a12.38 12.38 0 0 0 0-17.5l-1-1a12.33 12.33 0 0 0 -8.78-3.65z"/><path d="m46.52 70a22.38 22.38 0 0 1 -19.14-10.7 1.13 1.13 0 0 1 .17-1.39l27.66-27.66a12 12 0 0 0 1.38-1.7 1.13 1.13 0 0 1 1.5-.32 22.48 22.48 0 0 1 -11.57 41.77zm-16.74-11.14a20.23 20.23 0 1 0 28-28.15 14.31 14.31 0 0 1 -1 1.13z"/></g></svg>