<svg viewBox="0 0 70 70" xmlns="http://www.w3.org/2000/svg"><g fill="#4d9a00"><path d="m42.88 70h-22.5a1.12 1.12 0 0 1 -1.11-.92l-6.75-36a1.13 1.13 0 0 1 1.11-1.33h33.75a1.12 1.12 0 0 1 .84.38 1.14 1.14 0 0 1 .27.89l-4.49 35.98a1.12 1.12 0 0 1 -1.12 1zm-21.57-2.25h20.57l4.22-33.75h-31.1z"/><path d="m54.13 34h-45a1.12 1.12 0 0 1 -1.13-1.12v-6.76a1.12 1.12 0 0 1 1.13-1.12h45a1.12 1.12 0 0 1 1.12 1.12v6.76a1.12 1.12 0 0 1 -1.12 1.12zm-43.88-2.25h42.75v-4.5h-42.75z"/><path d="m47.38 27.25a1.12 1.12 0 0 1 -1.13-1.13c0-8.33-6.77-14.62-15.75-14.62s-15.75 6.29-15.75 14.62a1.13 1.13 0 1 1 -2.25 0c0-9.61 7.74-16.87 18-16.87s18 7.26 18 16.87a1.12 1.12 0 0 1 -1.12 1.13z"/><path d="m24.88 65.5a1.17 1.17 0 0 1 -.45-.09 1.13 1.13 0 0 1 -.59-1.48l22.5-51.75a1.2 1.2 0 0 1 .53-.56l13.5-6.75a1.12 1.12 0 1 1 1 2l-13.13 6.58-22.33 51.37a1.13 1.13 0 0 1 -1.03.68z"/><path d="m45.13 49.75h-28.13a1.13 1.13 0 0 1 0-2.25h28.13a1.13 1.13 0 0 1 0 2.25z"/></g></svg>