<svg viewBox="0 0 70 70" xmlns="http://www.w3.org/2000/svg"><g fill="#4d9a00"><path d="m35 70c-11.39 0-21.38-10-21.38-21.38 0-9.9 19.57-44.1 20.4-45.56a1.19 1.19 0 0 1 2 0c.83 1.46 20.4 35.66 20.4 45.56-.04 11.38-10.03 21.38-21.42 21.38zm0-64.09c-4 7.17-19.12 34.61-19.12 42.71 0 10.19 8.93 19.13 19.12 19.13s19.12-8.94 19.12-19.13c0-8.11-15.12-35.54-19.12-42.71z"/><path d="m35 61a12.4 12.4 0 0 1 -12.38-12.38 1.13 1.13 0 0 1 2.26 0 10.13 10.13 0 0 0 10.12 10.13 1.13 1.13 0 0 1 0 2.25z"/></g></svg>