<svg viewBox="0 0 70 70" xmlns="http://www.w3.org/2000/svg"><g fill="#4d9a00"><path d="m20.37 63.25a1.14 1.14 0 0 1 -.94-.5l-4.5-6.75a1.13 1.13 0 0 1 .31-1.56 1.12 1.12 0 0 1 1.56.31l4 6 17.2-6.43a1.13 1.13 0 0 1 .79 2.11l-18 6.75a1.07 1.07 0 0 1 -.42.07z"/><path d="m65.37 47.5h-2.25a3.38 3.38 0 0 1 -3.38-3.38 1.12 1.12 0 0 0 -1.12-1.12h-2.25a1.13 1.13 0 0 0 -1.13 1.12 3.37 3.37 0 0 1 -3.37 3.38h-2.25a3.38 3.38 0 0 1 -3.38-3.38 1.12 1.12 0 0 0 -1.12-1.12h-3.38a1.12 1.12 0 0 0 -1.12 1.12 3.38 3.38 0 0 1 -3.38 3.38h-4.5a3.37 3.37 0 0 1 -3.37-3.38 1.13 1.13 0 0 0 -1.13-1.12h-3.37a1.13 1.13 0 0 0 -1.13 1.12 3.37 3.37 0 0 1 -3.37 3.38h-2.25a3.38 3.38 0 0 1 -3.38-3.38 1.12 1.12 0 0 0 -1.12-1.12h-2.25a1.13 1.13 0 0 0 -1.13 1.12 3.37 3.37 0 0 1 -3.37 3.38h-2.25a3.38 3.38 0 0 1 -3.38-3.38v-.32a7.85 7.85 0 0 1 4.36-7l.76-.38a1.12 1.12 0 1 1 1 2l-.77.39a5.57 5.57 0 0 0 -3.11 5v.32a1.13 1.13 0 0 0 1.13 1.13h2.26a1.12 1.12 0 0 0 1.13-1.14 3.38 3.38 0 0 1 3.38-3.37h2.25a3.37 3.37 0 0 1 3.37 3.37 1.13 1.13 0 0 0 1.13 1.13h2.25a1.12 1.12 0 0 0 1.12-1.13 3.38 3.38 0 0 1 3.38-3.37h3.37a3.38 3.38 0 0 1 3.38 3.37 1.12 1.12 0 0 0 1.12 1.13h4.5a1.13 1.13 0 0 0 1.13-1.13 3.37 3.37 0 0 1 3.37-3.37h3.38a3.37 3.37 0 0 1 3.37 3.37 1.13 1.13 0 0 0 1.13 1.13h2.25a1.12 1.12 0 0 0 1.12-1.13 3.38 3.38 0 0 1 3.38-3.37h2.25a3.37 3.37 0 0 1 3.37 3.37 1.13 1.13 0 0 0 1.13 1.13h2.25a1.12 1.12 0 0 0 1.12-1.13v-.32a5.57 5.57 0 0 0 -3.11-5l-.77-.39a1.12 1.12 0 0 1 1-2l.77.38a7.84 7.84 0 0 1 4.35 7v.32a3.37 3.37 0 0 1 -3.37 3.39z"/><path d="m31.62 27.25a1.13 1.13 0 0 1 -.8-1.92l2.25-2.25a1.12 1.12 0 0 1 1.59 1.59l-2.25 2.25a1.11 1.11 0 0 1 -.79.33z"/><path d="m45.12 29.5a1.13 1.13 0 0 1 -.8-.33l-2.25-2.25a1.12 1.12 0 1 1 1.59-1.59l2.25 2.25a1.12 1.12 0 0 1 0 1.59 1.11 1.11 0 0 1 -.79.33z"/><path d="m56.37 34a1.13 1.13 0 0 1 -.8-.33l-2.25-2.25a1.12 1.12 0 1 1 1.59-1.59l2.25 2.25a1.12 1.12 0 0 1 0 1.59 1.11 1.11 0 0 1 -.79.33z"/><path d="m36.12 34a1.13 1.13 0 0 1 -.8-1.92l2.25-2.25a1.12 1.12 0 0 1 1.59 1.59l-2.25 2.25a1.11 1.11 0 0 1 -.79.33z"/><path d="m18.12 31.75a1.13 1.13 0 0 1 -.8-1.92l2.25-2.25a1.12 1.12 0 1 1 1.59 1.59l-2.25 2.25a1.11 1.11 0 0 1 -.79.33z"/><path d="m65.37 38.5h-58.5a1.13 1.13 0 0 1 -1.13-1.12c0-11.79 13.63-21.38 30.38-21.38s30.37 9.59 30.37 21.38a1.12 1.12 0 0 1 -1.12 1.12zm-57.37-2.25h56.19c-.85-10-13.12-18-28.07-18s-27.22 7.98-28.12 18z"/><path d="m62 56.5h-51.76a6.76 6.76 0 0 1 -6.75-6.75c0-2.27 1.17-3.14 2.41-4.06l.29-.21a1.12 1.12 0 1 1 1.35 1.79l-.3.23c-1.15.85-1.5 1.11-1.5 2.25a4.51 4.51 0 0 0 4.5 4.5h51.76a4.51 4.51 0 0 0 4.5-4.5v-.75c0-1.19 0-1.21-.68-1.75a1.12 1.12 0 1 1 1.35-1.79c1.55 1.17 1.61 2.08 1.58 3.59v.68a6.75 6.75 0 0 1 -6.75 6.77z"/><path d="m51.87 70h-31.5a14.64 14.64 0 0 1 -14.63-14.62 1.13 1.13 0 0 1 1.13-1.13h58.5a1.12 1.12 0 0 1 1.12 1.13 14.64 14.64 0 0 1 -14.62 14.62zm-43.87-13.5a12.39 12.39 0 0 0 12.37 11.25h31.5a12.39 12.39 0 0 0 12.32-11.25z"/></g></svg>