<svg viewBox="0 0 70 70" xmlns="http://www.w3.org/2000/svg"><g fill="#4d9a00"><path d="m41.75 36.26h-31.5a3.38 3.38 0 0 1 -3.37-3.38v-2.25a3.37 3.37 0 0 1 3.37-3.37h31.5a3.38 3.38 0 0 1 3.38 3.37v2.25a3.39 3.39 0 0 1 -3.38 3.38zm-31.5-6.75a1.12 1.12 0 0 0 -1.12 1.12v2.25a1.13 1.13 0 0 0 1.12 1.12h31.5a1.14 1.14 0 0 0 1.13-1.13v-2.24a1.13 1.13 0 0 0 -1.13-1.12z"/><path d="m26 58.76h-15.75a3.38 3.38 0 0 1 -3.37-3.38v-2.25a3.37 3.37 0 0 1 3.37-3.37h18a1.13 1.13 0 1 1 0 2.25h-18a1.12 1.12 0 0 0 -1.12 1.12v2.25a1.13 1.13 0 0 0 1.12 1.13h15.75a1.13 1.13 0 1 1 0 2.25z"/><path d="m41.75 13.76h-31.5a3.38 3.38 0 0 1 -3.37-3.38v-2.25a3.37 3.37 0 0 1 3.37-3.37h31.5a3.38 3.38 0 0 1 3.38 3.37v2.25a3.39 3.39 0 0 1 -3.38 3.38zm-31.5-6.76a1.12 1.12 0 0 0 -1.12 1.13v2.25a1.13 1.13 0 0 0 1.12 1.13h31.5a1.14 1.14 0 0 0 1.13-1.13v-2.25a1.13 1.13 0 0 0 -1.13-1.13z"/><path d="m41.75 29.51h-31.5a1.13 1.13 0 0 1 -1.12-1.13v-15.75a1.12 1.12 0 0 1 1.12-1.12h31.5a1.13 1.13 0 0 1 1.13 1.12v15.75a1.14 1.14 0 0 1 -1.13 1.13zm-30.37-2.25h29.25v-13.5h-29.25z"/><path d="m19.25 4.76h-6.75a1.13 1.13 0 0 1 0-2.25h6.75a1.13 1.13 0 1 1 0 2.25z"/><path d="m44.26 70a12.63 12.63 0 0 1 -8.93-21.56c4.94-4.94 15.11-9.93 26.67-9.93a1.12 1.12 0 0 1 1 .69 1.14 1.14 0 0 1 -.24 1.23c-3 3-4.14 8.58-5.28 14-1 4.9-2 9.53-4.33 11.86a12.62 12.62 0 0 1 -8.89 3.71zm15.35-29.17c-9.91.61-18.42 4.93-22.69 9.21a10.38 10.38 0 0 0 14.68 14.68c1.85-1.85 2.75-6.17 3.71-10.74 1-4.76 2.03-9.66 4.3-13.15z"/><path d="m37.25 67.76a1.13 1.13 0 0 1 -1.12-1.13c0-7.36 10.23-16.87 12.37-16.87a1.13 1.13 0 0 1 1.13 1.12 1.11 1.11 0 0 1 -1 1.11c-1.7.7-10.28 8.56-10.28 14.64a1.14 1.14 0 0 1 -1.1 1.13z"/><path d="m28.25 52h-18a1.13 1.13 0 0 1 -1.12-1.13v-15.74a1.12 1.12 0 0 1 1.12-1.13h31.5a1.13 1.13 0 0 1 1.13 1.12v2.25a1.13 1.13 0 1 1 -2.25 0v-1.11h-29.25v13.5h16.87a1.13 1.13 0 1 1 0 2.25z"/></g></svg>