<svg viewBox="0 0 70 70" xmlns="http://www.w3.org/2000/svg"><g fill="#4d9a00"><path d="m54 40.45a1.13 1.13 0 0 1 -.79-1.92l4.09-4.1a1.12 1.12 0 0 1 1.62 0 2.61 2.61 0 0 1 .79 1.79c0 1.69-1.76 3-5.38 4.15a1.26 1.26 0 0 1 -.33.08z"/><path d="m30.5 43c-10.12 0-29.25-1.41-29.25-6.75s19.13-6.75 29.25-6.75a114.8 114.8 0 0 1 18.36 1.35 1.13 1.13 0 0 1 .89.77 1.14 1.14 0 0 1 -.28 1.14l-9.65 9.65a1.09 1.09 0 0 1 -.72.32c-2.78.18-5.68.27-8.6.27zm0-11.25c-17.81 0-27 3.15-27 4.5s9.19 4.5 27 4.5c2.73 0 5.43-.08 8-.24l7.78-7.77a118.84 118.84 0 0 0 -15.78-.99z"/><path d="m42.88 62.64a1.13 1.13 0 0 1 -.5-2.14 26.82 26.82 0 0 0 15-21.28 17.45 17.45 0 0 1 -3 1.18 1.12 1.12 0 0 1 -1.12-1.87l6.48-6.48a1.09 1.09 0 0 1 .85-.33 5.61 5.61 0 0 0 4.27-9.57 5.74 5.74 0 0 0 -7.95 0 5.54 5.54 0 0 0 -1.62 4.27 1.08 1.08 0 0 1 -.33.85l-15.14 15.14a1.09 1.09 0 0 1 -.72.32c-2.78.18-5.68.27-8.6.27-7.93 0-21.38-.87-26.84-3.81a26.82 26.82 0 0 0 15 21.31 1.12 1.12 0 0 1 -1 2 29.08 29.08 0 0 1 -16.41-26.25 1.13 1.13 0 1 1 2.25 0c0 1.35 9.19 4.5 27 4.5 2.73 0 5.43-.08 8-.24l14.5-14.51a7.82 7.82 0 0 1 2.28-5.46 8 8 0 0 1 11.13 0 7.85 7.85 0 0 1 -5.41 13.46l-1.54 1.5a1.11 1.11 0 0 1 .29.75 29.07 29.07 0 0 1 -16.38 26.27 1.11 1.11 0 0 1 -.49.12z"/><path d="m42.88 70h-24.76a1.12 1.12 0 0 1 -1.12-1.12v-6.71a29.07 29.07 0 0 1 -15.75-25.92 1.13 1.13 0 1 1 2.25 0c0 1.35 9.19 4.5 27 4.5s27-3.15 27-4.5a1.13 1.13 0 1 1 2.25 0 29.07 29.07 0 0 1 -15.75 25.92v6.71a1.12 1.12 0 0 1 -1.12 1.12zm-23.63-2.25h22.5v-6.27a1.12 1.12 0 0 1 .63-1 26.83 26.83 0 0 0 15-21.28c-5.5 2.93-18.95 3.8-26.88 3.8s-21.38-.87-26.84-3.81a26.83 26.83 0 0 0 15 21.28 1.12 1.12 0 0 1 .63 1z"/></g></svg>