<svg viewBox="0 0 42.75 67.46" xmlns="http://www.w3.org/2000/svg"><g fill="#4d9a00"><path d="m21.38 67.46c-11.38 0-21.38-9.99-21.38-21.38 0-9.9 19.57-44.08 20.4-45.56a1.18 1.18 0 0 1 2 0c.83 1.46 20.4 35.66 20.4 45.56-.05 11.39-10.04 21.38-21.42 21.38zm0-64.09c-4.03 7.17-19.13 34.63-19.13 42.71 0 10.19 8.94 19.13 19.13 19.13s19.12-8.94 19.12-19.13c0-8.08-15.1-35.54-19.12-42.71z"/><path d="m21.38 58.46a12.39 12.39 0 0 1 -12.38-12.38 1.13 1.13 0 0 1 2.25 0 10.14 10.14 0 0 0 10.13 10.13 1.13 1.13 0 0 1 0 2.25z"/></g></svg>